<?xml version="1.0" standalone="no"?>
<!DOCTYPE svg PUBLIC "-//W3C//DTD SVG 20010904//EN"
 "http://www.w3.org/TR/2001/REC-SVG-20010904/DTD/svg10.dtd">
<svg version="1.0" xmlns="http://www.w3.org/2000/svg"
 width="270.000000pt" height="270.000000pt" viewBox="0 0 270.000000 270.000000"
 preserveAspectRatio="xMidYMid meet">
<metadata>
Created by potrace 1.11, written by Peter Selinger 2001-2013
</metadata>
<g transform="translate(0.000000,270.000000) scale(0.100000,-0.100000)"
fill="#000000" stroke="none">
<path d="M1394 2666 c-34 -38 -84 -106 -96 -130 -9 -16 -24 -30 -34 -31 -73
-7 -139 -18 -204 -36 -41 -11 -83 -22 -92 -24 -50 -11 -248 -118 -316 -170
-44 -33 -205 -199 -240 -247 -60 -82 -125 -210 -160 -313 -30 -91 -37 -120
-52 -230 -9 -62 -6 -289 4 -315 3 -8 7 -28 9 -45 3 -16 12 -58 22 -93 l18 -62
-28 -62 c-16 -35 -29 -84 -31 -114 -2 -44 1 -57 21 -78 31 -34 62 -33 106 4
l36 29 48 -71 c60 -87 191 -220 270 -273 33 -22 62 -43 65 -46 6 -6 174 -89
205 -100 239 -89 532 -94 774 -13 404 135 706 487 777 904 2 14 7 36 10 49 6
28 7 256 0 286 -2 11 -7 40 -11 65 -30 200 -149 435 -299 594 -53 56 -63 72
-55 87 5 10 10 29 11 43 1 15 9 26 17 26 11 0 10 4 -5 15 -25 19 -63 19 -108
0 -36 -15 -37 -15 -109 28 -40 24 -99 55 -132 69 -70 31 -227 78 -260 78 -29
0 -38 13 -54 80 -21 86 -37 111 -70 108 -15 -1 -32 -7 -37 -12z"/>
</g>
</svg>
